<svg width="91" height="28" viewBox="0 0 91 28" fill="none" xmlns="http://www.w3.org/2000/svg">
<path d="M43.6446 3.03029V0H23.6591V3.86343H37.8325L23.5704 24.4734V27.5786H44.0992V23.7502H29.36L43.6446 3.03029Z" fill="#1E1E1E"/>
<path d="M88.8542 26.3045C88.203 26.7775 87.3411 27.0144 86.2686 27.0153C85.0636 27.0153 84.0977 26.7342 83.3707 26.1721C82.6437 25.61 82.2807 24.8427 82.2815 23.8701H81.1174C81.1028 24.6334 81.3206 25.3831 81.7419 26.0197C82.1583 26.6451 82.7736 27.1314 83.5881 27.4787C84.4351 27.8329 85.3456 28.0101 86.2636 27.9996C87.6842 27.9996 88.8284 27.6715 89.6961 27.0153C90.1099 26.7187 90.445 26.3255 90.672 25.8698C90.8991 25.4142 91.0113 24.9099 90.9989 24.4009C91.0167 23.7697 90.8505 23.1469 90.5205 22.6085C90.1543 22.0637 89.6602 21.6168 89.0815 21.3069C88.4437 20.9439 87.506 20.5933 86.2686 20.2552C85.0312 19.9171 84.1314 19.5266 83.5693 19.0835C83.3023 18.8849 83.0866 18.6255 82.9399 18.3268C82.7933 18.0281 82.72 17.6987 82.7262 17.3661C82.7197 17.0054 82.8019 16.6488 82.9654 16.3273C83.129 16.0058 83.3689 15.7295 83.6642 15.5224C84.2888 15.0502 85.1286 14.8142 86.1837 14.8142C87.2662 14.8142 88.131 15.101 88.778 15.6748C89.425 16.2485 89.7473 17.0067 89.7448 17.9494H90.919C90.9282 17.2026 90.7213 16.469 90.3231 15.8372C89.9121 15.1977 89.3289 14.6872 88.6406 14.3645C87.8733 14.0014 87.0325 13.8201 86.1837 13.8349C84.8321 13.8349 83.7225 14.1646 82.8548 14.8242C81.9871 15.4837 81.5525 16.3401 81.5508 17.3935C81.5508 18.4761 82.0179 19.3534 82.9523 20.0254C83.6084 20.4992 84.6494 20.9364 86.075 21.3369C87.5006 21.7375 88.4841 22.1613 89.0253 22.6085C89.5608 23.0548 89.8289 23.6594 89.8298 24.4222C89.8375 24.7928 89.7523 25.1595 89.5819 25.4888C89.4114 25.818 89.1613 26.0993 88.8542 26.307M79.7583 14.0247H69.1523V15.009H73.8676V27.8122H75.033V15.0065H79.7583V14.0247ZM63.6264 15.4425L66.3918 22.952H60.8609L63.6264 15.4425ZM68.1918 27.8084H69.4034L64.1884 14.0222H63.0818L57.8593 27.8097H59.0809L60.5011 23.9375H66.7616L68.1918 27.8084ZM55.7009 20.214H49.2556V15.0053H56.6252V14.021H48.0914V27.8097H56.6714V26.8254H49.2556V21.2045H55.7046L55.7009 20.214Z" fill="#1E1E1E"/>
<path d="M17.1689 11.4204H0.986938V15.2738H17.1689V11.4204Z" fill="#EA374A"/>
<path d="M18.8827 0H0.984497V3.81347H18.8827V0Z" fill="#1E1E1E"/>
<path d="M19.0151 23.8488H0.984497V27.5761H19.0151V23.8488Z" fill="#1E1E1E"/>
</svg>
