<svg width="16" height="12" viewBox="0 0 16 12" fill="none" xmlns="http://www.w3.org/2000/svg">
<path d="M4.00004 5.33332V7.99999M12 3.99999V6.66665M11.3334 0.666656C12.9658 0.666656 13.8488 0.916497 14.2881 1.11028C14.3466 1.13609 14.3759 1.149 14.4603 1.22957C14.5109 1.27787 14.6033 1.41959 14.6271 1.48538C14.6667 1.59515 14.6667 1.65515 14.6667 1.77515V8.94075C14.6667 9.5466 14.6667 9.84952 14.5759 10.0052C14.4834 10.1636 14.3943 10.2372 14.2213 10.2981C14.0513 10.358 13.708 10.292 13.0215 10.1601C12.541 10.0678 11.9711 9.99999 11.3334 9.99999C9.33337 9.99999 7.33337 11.3333 4.66671 11.3333C3.03424 11.3333 2.15129 11.0835 1.71196 10.8897C1.65346 10.8639 1.6242 10.851 1.53977 10.7704C1.48916 10.7221 1.39679 10.5804 1.37302 10.5146C1.33337 10.4048 1.33337 10.3448 1.33337 10.2248L1.33337 3.05923C1.33337 2.45338 1.33337 2.15046 1.42423 1.99475C1.51664 1.83637 1.60577 1.76273 1.77875 1.70186C1.9488 1.64202 2.29206 1.70798 2.97859 1.83989C3.45912 1.93222 4.02903 1.99999 4.66671 1.99999C6.66671 1.99999 8.66671 0.666656 11.3334 0.666656ZM9.66671 5.99999C9.66671 6.92046 8.92052 7.66665 8.00004 7.66665C7.07957 7.66665 6.33337 6.92046 6.33337 5.99999C6.33337 5.07951 7.07957 4.33332 8.00004 4.33332C8.92052 4.33332 9.66671 5.07951 9.66671 5.99999Z" stroke="#848199" stroke-linecap="round" stroke-linejoin="round"/>
</svg>
