<svg width="32" height="34" viewBox="0 0 32 34" fill="none" xmlns="http://www.w3.org/2000/svg">
<path d="M9.54336 21.3333C10.2834 24.2087 12.8936 26.3333 16 26.3333C19.1064 26.3333 21.7166 24.2087 22.4566 21.3333M14.3628 2.60666L3.05898 11.3985C2.30337 11.9862 1.92556 12.2801 1.65338 12.6481C1.41228 12.9741 1.23267 13.3413 1.12338 13.7318C1 14.1725 1 14.6512 1 15.6084V27.6666C1 29.5335 1 30.4669 1.36331 31.1799C1.68289 31.8071 2.19282 32.3171 2.82003 32.6367C3.53307 33 4.46649 33 6.33333 33H25.6667C27.5335 33 28.4669 33 29.18 32.6367C29.8072 32.3171 30.3171 31.8071 30.6367 31.1799C31 30.4669 31 29.5335 31 27.6666V15.6084C31 14.6512 31 14.1725 30.8766 13.7318C30.7673 13.3413 30.5877 12.9741 30.3466 12.6481C30.0744 12.2801 29.6966 11.9862 28.941 11.3985L17.6372 2.60667C17.0516 2.15124 16.7589 1.92353 16.4356 1.836C16.1503 1.75877 15.8497 1.75877 15.5644 1.836C15.2411 1.92353 14.9484 2.15124 14.3628 2.60666Z" stroke="#29376B" stroke-width="2" stroke-linecap="round" stroke-linejoin="round"/>
</svg>
