<svg width="40" height="40" viewBox="0 0 40 40" fill="none" xmlns="http://www.w3.org/2000/svg">
<circle cx="20" cy="20" r="20" fill="#E8A298"/>
<circle cx="20" cy="20" r="20" fill="url(#paint0_linear_13_188)"/>
<path d="M29.7103 11.329V10H20.9261V11.6895H27.1543L20.8871 20.7015V22.0591H29.9144V20.3831H23.4321L29.7103 11.329Z" fill="white"/>
<path d="M28.8229 29.5035C28.5388 29.7099 28.162 29.8132 27.6925 29.8132C27.1663 29.8132 26.7452 29.6906 26.429 29.4456C26.2745 29.3292 26.1505 29.1773 26.0677 29.0028C25.9848 28.8284 25.9455 28.6366 25.9531 28.4437H25.4477C25.442 28.7762 25.5381 29.1026 25.7231 29.3793C25.9241 29.6656 26.205 29.8867 26.5309 30.0154C26.9011 30.1694 27.299 30.2465 27.7001 30.2419C28.3217 30.2419 28.8221 30.099 29.2011 29.8132C29.3822 29.6842 29.5288 29.5129 29.6281 29.3144C29.7274 29.1159 29.7763 28.8962 29.7706 28.6745C29.7776 28.3998 29.7044 28.129 29.56 27.8949C29.3995 27.6578 29.1836 27.4631 28.9307 27.3277C28.65 27.17 28.2398 27.0172 27.7001 26.8695C27.1604 26.7219 26.7674 26.5518 26.5208 26.3594C26.4042 26.2729 26.31 26.16 26.2459 26.0299C26.1819 25.8999 26.15 25.7565 26.1527 25.6117C26.1499 25.4545 26.1858 25.299 26.2573 25.1589C26.3288 25.0187 26.4338 24.8982 26.5629 24.8078C26.8359 24.6031 27.2028 24.5005 27.6639 24.4999C28.139 24.4999 28.5172 24.6249 28.7985 24.875C28.9378 24.9988 29.0478 25.1518 29.1206 25.323C29.1934 25.4942 29.2272 25.6793 29.2197 25.8651H29.7276C29.732 25.5388 29.6413 25.2181 29.4665 24.9421C29.2875 24.6628 29.0328 24.4397 28.732 24.2985C28.3955 24.1408 28.0272 24.0625 27.6555 24.0694C27.0653 24.0694 26.5801 24.2132 26.1999 24.5007C26.0206 24.627 25.8751 24.795 25.7758 24.9901C25.6766 25.1852 25.6267 25.4014 25.6305 25.6201C25.6305 26.0934 25.8349 26.4757 26.2437 26.7672C26.5312 26.9736 26.9866 27.1641 27.61 27.3386C28.2333 27.5131 28.6626 27.6975 28.8979 27.8916C29.0146 27.9938 29.1068 28.1208 29.1675 28.2633C29.2283 28.4058 29.2561 28.56 29.2489 28.7147C29.2417 28.8693 29.1997 29.0203 29.1259 29.1566C29.0522 29.2929 28.9486 29.4109 28.8229 29.5018M24.8463 24.1533H20.2092V24.583H22.2713V30.1597H22.7767V24.583H24.8429L24.8463 24.1533ZM17.7926 24.7726L19.0013 28.0451H16.5872L17.7926 24.7726ZM19.7889 30.1597H20.3187L18.0369 24.1533H17.5525L15.2706 30.1597H15.8055L16.4263 28.4723H19.163L19.7889 30.1597ZM14.3289 26.8511H11.5088V24.5855H14.7341V24.1533H11V30.1597H14.7509V29.7309H11.5088V27.2799H14.3289V26.8511Z" fill="white"/>
<path d="M18.1645 15.0246H11V16.6038H18.1645V15.0246Z" fill="black"/>
<path d="M18.881 10H11V11.7227H18.881V10Z" fill="white"/>
<path d="M18.881 20.48H11V22.0591H18.881V20.48Z" fill="white"/>
<defs>
<linearGradient id="paint0_linear_13_188" x1="20" y1="0" x2="20" y2="40" gradientUnits="userSpaceOnUse">
<stop stop-color="#E31837"/>
<stop offset="1" stop-color="#CD7981"/>
</linearGradient>
</defs>
</svg>
