<svg width="114" height="123" viewBox="0 0 114 123" fill="none" xmlns="http://www.w3.org/2000/svg">
<path d="M112.77 8.3817V0.386383H59.8256V10.5503H97.3643L59.5908 64.7644V72.932H114V62.8491H74.9299L112.77 8.3817Z" fill="white"/>
<path d="M107.422 117.716C105.71 118.958 103.439 119.579 100.609 119.579C97.4377 119.579 94.8992 118.842 92.9937 117.368C92.0624 116.667 91.3153 115.753 90.8158 114.704C90.3164 113.654 90.0795 112.5 90.1252 111.34H87.0791C87.0447 113.341 87.6237 115.304 88.7392 116.969C89.9504 118.691 91.6433 120.021 93.608 120.795C95.8392 121.721 98.237 122.185 100.655 122.158C104.401 122.158 107.417 121.298 109.702 119.579C110.793 118.803 111.677 117.772 112.275 116.578C112.874 115.384 113.168 114.062 113.134 112.728C113.176 111.076 112.735 109.447 111.865 108.039C110.898 106.612 109.596 105.441 108.072 104.627C106.38 103.677 103.907 102.759 100.655 101.87C97.4021 100.982 95.0329 99.9588 93.5471 98.8012C92.8441 98.281 92.2761 97.6015 91.8903 96.8193C91.5044 96.0371 91.3118 95.1746 91.3285 94.3035C91.3112 93.3578 91.5275 92.4223 91.9586 91.5792C92.3897 90.736 93.0223 90.0109 93.8009 89.4675C95.4458 88.2358 97.6577 87.6183 100.436 87.6149C103.3 87.6149 105.579 88.3671 107.275 89.8714C108.114 90.6162 108.777 91.5366 109.216 92.5665C109.655 93.5965 109.859 94.7103 109.813 95.8279H112.875C112.902 93.8646 112.355 91.9357 111.301 90.2752C110.222 88.5952 108.687 87.253 106.874 86.4034C104.846 85.4549 102.626 84.9834 100.386 85.0253C96.8284 85.0253 93.9041 85.8902 91.6128 87.62C90.5323 88.3796 89.6549 89.3901 89.0568 90.5637C88.4587 91.7373 88.1579 93.0385 88.1808 94.3539C88.1808 97.201 89.4128 99.5012 91.8768 101.254C93.6097 102.496 96.3546 103.642 100.111 104.692C103.868 105.742 106.456 106.851 107.874 108.019C108.578 108.633 109.133 109.398 109.499 110.255C109.865 111.112 110.033 112.04 109.99 112.97C109.946 113.9 109.693 114.809 109.249 115.629C108.804 116.449 108.18 117.158 107.422 117.706M83.4542 85.5301H55.5058V88.1147H67.9341V121.663H70.9802V88.1147H83.4339L83.4542 85.5301ZM40.9402 89.2555L48.2255 108.943H33.6751L40.9402 89.2555ZM52.9724 121.663H56.1658L42.4125 85.5301H39.4932L25.7399 121.663H28.9637L32.7054 111.512H49.2003L52.9724 121.663ZM20.0639 101.759H3.06644V88.1298H22.5059V85.5301H0V121.663H22.6075V119.084H3.06644V104.339H20.0639V101.759Z" fill="white"/>
<path d="M43.1819 30.6138H0V40.1138H43.1819V30.6138Z" fill="white"/>
<path d="M47.5001 0.386383H0V10.75H47.5001V0.386383Z" fill="white"/>
<path d="M47.5001 63.432H0V72.932H47.5001V63.432Z" fill="white"/>
</svg>
