<svg width="16" height="16" viewBox="0 0 16 16" fill="none" xmlns="http://www.w3.org/2000/svg">
<path d="M13.3333 8.33333V4.53333C13.3333 3.41322 13.3333 2.85317 13.1153 2.42535C12.9236 2.04902 12.6176 1.74306 12.2413 1.55132C11.8134 1.33333 11.2534 1.33333 10.1333 1.33333H5.86663C4.74652 1.33333 4.18647 1.33333 3.75864 1.55132C3.38232 1.74306 3.07636 2.04902 2.88461 2.42535C2.66663 2.85317 2.66663 3.41322 2.66663 4.53333V11.4667C2.66663 12.5868 2.66663 13.1468 2.88461 13.5746C3.07636 13.951 3.38232 14.2569 3.75864 14.4487C4.18647 14.6667 4.74652 14.6667 5.86663 14.6667H7.99996M9.33329 7.33333H5.33329M6.66663 10H5.33329M10.6666 4.66666H5.33329M9.66663 12.6667L11 14L14 11" stroke="#3D3D43" stroke-linecap="round" stroke-linejoin="round"/>
</svg>
