<svg width="12" height="14" viewBox="0 0 12 14" fill="none" xmlns="http://www.w3.org/2000/svg">
<path d="M3.99996 6L5.33329 7.33333L8.33329 4.33333M11.3333 13V4.2C11.3333 3.0799 11.3333 2.51984 11.1153 2.09202C10.9236 1.71569 10.6176 1.40973 10.2413 1.21799C9.81345 1 9.2534 1 8.13329 1H3.86663C2.74652 1 2.18647 1 1.75864 1.21799C1.38232 1.40973 1.07636 1.71569 0.884613 2.09202C0.666626 2.51984 0.666626 3.0799 0.666626 4.2V13L2.49996 11.6667L4.16663 13L5.99996 11.6667L7.83329 13L9.49996 11.6667L11.3333 13Z" stroke="black" stroke-opacity="0.3" stroke-linecap="round" stroke-linejoin="round"/>
</svg>
